<?xml version="1.0" encoding="utf-8"?>
<!-- Generator: Adobe Illustrator 13.0.1, SVG Export Plug-In . SVG Version: 6.00 Build 14948)  -->
<!DOCTYPE svg PUBLIC "-//W3C//DTD SVG 1.0//EN" "http://www.w3.org/TR/2001/REC-SVG-20010904/DTD/svg10.dtd">
<svg version="1.0" id="Warstwa_1" xmlns="http://www.w3.org/2000/svg" xmlns:xlink="http://www.w3.org/1999/xlink" x="0px" y="0px"
	 width="253.572px" height="253.508px" viewBox="0 0 253.572 253.508" enable-background="new 0 0 253.572 253.508"
	 xml:space="preserve">
<g>
	<path fill="#DDDDDD" d="M0.032,13.369v185.46L0,199.161c0,0,0.032,0.411,0.032,0.712v40.298
		c0.031,7.372,5.996,13.337,13.369,13.337h226.833c7.373,0,13.338-5.965,13.338-13.337V13.369C253.572,5.964,247.607,0,240.234,0
		H13.401C6.028,0,0.063,5.964,0.032,13.369z M21.502,243.003H18.67v-0.38c-4.668-1.266-8.101-5.49-8.101-10.553v-28.732
		l74.273-60.454l86.584,100.119H21.502z M243.066,232.07c-0.031,6.043-4.921,10.9-10.933,10.933H186.9l-62.979-72.874l75.271-61.546
		l42.386,45.835l1.487,0.538V232.07z M21.502,10.537h210.632c6.012,0,10.901,4.865,10.933,10.901v110.648v7.27l-37.607-40.708
		c-1.124-0.894-2.69-1.361-4.557-1.361c-0.364,0-0.507,0-1.298,0.032c-0.237-0.032-0.475-0.032-0.633-0.032
		c-1.646,0-2.879,0.427-3.939,1.4l-77.913,63.642l-26.873-31.104c-1.131-1.171-2.437-1.638-3.868-1.669
		c-0.229,0-0.396,0.031-0.499,0.031l-0.529,0.103l-0.127-0.031c-0.095,0.031-0.276,0.087-0.609,0.166l-1.067,0.396
		c-1.836,0.372-2.832,0.641-3.235,1.107L10.569,188.07V21.438C10.569,15.402,15.466,10.537,21.502,10.537z"/>
	<path fill="#DDDDDD" d="M32.435,61.941c0.031,16.312,13.258,29.539,29.57,29.571c16.352-0.032,29.538-13.259,29.57-29.571
		c-0.032-16.32-13.251-29.539-29.57-29.57C45.692,32.402,32.466,45.621,32.435,61.941z M62.005,42.963
		c10.521,0,19.049,8.488,19.049,19.009s-8.527,19.049-19.049,19.049s-19.01-8.528-19.01-19.049S51.483,42.963,62.005,42.963z"/>
</g>
</svg>
